<?xml version="1.0" encoding="UTF-8" standalone="no"?>
<svg
   id="svg"
   version="1.1"
   width="399.98508"
   height="73.329849"
   viewBox="0 0 399.98508 73.329849"
   sodipodi:docname="logo.svg"
   inkscape:version="1.1.2 (0a00cf5339, 2022-02-04)"
   xmlns:inkscape="http://www.inkscape.org/namespaces/inkscape"
   xmlns:sodipodi="http://sodipodi.sourceforge.net/DTD/sodipodi-0.dtd"
   xmlns="http://www.w3.org/2000/svg"
   xmlns:svg="http://www.w3.org/2000/svg">
  <g
     id="svgg"
     transform="translate(-0.01491506,-0.01492131)">
    <path
       id="path0"
       d="m 74,0.425 c -0.687,0.226 -1.821,0.559 -2.519,0.741 -8.973,2.332 -22.256,7.747 -25.988,10.595 -3.006,2.295 -4.652,6.677 -3.318,8.835 1.541,2.493 5.255,2.106 12.825,-1.339 1.146,-0.522 2.307,-1.031 2.579,-1.132 0.273,-0.101 1.234,-0.547 2.136,-0.99 0.903,-0.444 2.104,-1.001 2.671,-1.238 C 66.896,14.009 78.563,7.964 79.495,7.031 83.338,3.188 79.53,-1.391 74,0.425 M 39.167,3.001 c -1.146,0.628 -2.966,1.616 -4.045,2.195 -1.078,0.58 -2.728,1.474 -3.666,1.986 -3.523,1.926 -6.251,3.399 -7.623,4.116 -0.779,0.407 -1.832,0.99 -2.34,1.295 -0.508,0.306 -1.108,0.626 -1.333,0.711 -0.226,0.086 -1.307,0.658 -2.403,1.272 -1.097,0.613 -2.24,1.219 -2.542,1.345 C 9.342,18.375 2.762,25.973 0.859,32.5 c -0.843,2.89 -0.894,3.401 -0.82,8.173 l 0.068,4.41 0.627,2.401 c 5.316,20.358 20.143,29.756 38.433,24.361 5.015,-1.479 8.947,-5.1 11.195,-10.31 L 50.917,60.25 50.91,57.333 C 50.891,48.327 42.857,30.796 37.583,28.251 34.299,26.666 27.295,27.219 19.946,29.643 c -1.076,0.355 -1.998,0.687 -2.049,0.737 -0.389,0.39 3.299,6.487 4.929,8.148 2.067,2.106 4.545,1.925 11.643,-0.855 1.09,-0.426 0.919,-0.547 2.403,1.702 6.469,9.803 7.461,16.386 3.181,21.115 -3.45,3.812 -11.755,4.602 -17.722,1.685 C 17.143,59.64 12.177,53.86 10.852,48.815 7.986,37.9 11.722,28.818 21.083,23.942 c 1.418,-0.738 13.569,-6.713 16.553,-8.139 1.985,-0.949 3.48,-2.397 4.409,-4.272 L 42.75,10.108 V 7.763 C 42.75,6.25 42.671,5.18 42.527,4.75 42.002,3.175 41.463,1.834 41.36,1.846 41.3,1.854 40.313,2.373 39.167,3.001 M 87.833,9.22 C 87.329,9.337 86.054,9.778 85,10.2 c -1.054,0.422 -2.517,1.008 -3.25,1.302 -2.102,0.842 -4.84,1.958 -6.833,2.786 -5.544,2.303 -7.03,2.924 -9,3.76 -9.572,4.059 -16.296,7.32 -17.549,8.51 -3.119,2.963 -0.56,9.441 3.729,9.442 1.115,0 3.959,-0.908 7.089,-2.264 1.358,-0.588 2.514,-1.069 2.568,-1.069 0.123,0 4.838,-2.137 8.079,-3.662 1.329,-0.625 2.942,-1.381 3.584,-1.678 5.942,-2.758 17.025,-8.247 18.315,-9.073 5.049,-3.229 1.96,-10.386 -3.899,-9.034 m -1.067,15.289 c -2.02,0.507 -15.915,6.172 -24.349,9.928 -7.026,3.129 -8.604,4.073 -9.082,5.434 -1.662,4.734 1.899,8.793 6.77,7.714 4.022,-0.891 15.106,-6.05 25.228,-11.741 0.779,-0.438 2.271,-1.276 3.315,-1.862 2.225,-1.249 3.276,-2.134 3.901,-3.281 1.966,-3.612 -1.458,-7.277 -5.783,-6.192 m -1.933,16.474 c -1.996,0.583 -8.091,2.952 -16,6.218 -3.145,1.299 -8.21,3.793 -9.175,4.518 -2.02,1.517 -1.52,6.805 0.852,9.024 1.588,1.486 3.321,1.284 8.907,-1.035 4.045,-1.679 17.006,-8.084 19.333,-9.554 5.895,-3.723 2.738,-11.114 -3.917,-9.171"
       stroke="none"
       fill="#ffffff"
       fill-rule="evenodd"
       sodipodi:nodetypes="cccccccccccccccccccccccccccccccccccccccsccccsccccccsccccccccscccccccccc"
       style="fill:#ffffff" />
    <path
       id="path1"
       d="m 298.5,27.341 c -10.118,0.804 -18.548,7.97 -22.056,18.749 -4.883,15.006 -0.062,24.889 12.806,26.256 10.929,1.161 20.585,-4.687 24.992,-15.136 6.907,-16.377 1.894,-28.723 -12.134,-29.884 -1.022,-0.085 -1.896,-0.144 -1.941,-0.132 -0.046,0.011 -0.796,0.078 -1.667,0.147 m -159.917,0.092 c -8.025,0.809 -13.771,3.717 -18.72,9.472 -6.71,7.804 -9.565,21.104 -6.002,27.961 3.764,7.243 13.215,9.258 29.012,6.185 l 2.29,-0.446 0.1,-0.594 c 0.379,-2.256 3.011,-13.868 4.102,-18.094 0.45,-1.742 0.879,-3.486 0.955,-3.875 l 0.137,-0.709 -6.854,0.001 -6.853,10e-4 -0.57,1.957 c -0.314,1.077 -0.603,2.052 -0.643,2.166 -0.057,0.164 0.874,0.209 4.297,0.209 h 4.369 l -0.09,0.375 c -0.049,0.206 -0.44,2.1 -0.868,4.208 -0.724,3.561 -2.29,10.2 -2.432,10.313 -0.859,0.683 -5.881,1.494 -9.23,1.491 -10.203,-0.008 -14.897,-5.351 -13.588,-15.471 1.116,-8.626 6.596,-16.065 14.138,-19.191 4.861,-2.015 11.631,-1.709 18.851,0.851 0.901,0.32 0.766,0.576 1.09,-2.076 0.151,-1.238 0.312,-2.447 0.358,-2.686 0.199,-1.025 -9.61,-2.476 -13.849,-2.048 m 62.584,0.38 c -9.044,2.057 -13,12.154 -7.559,19.293 0.561,0.735 4.516,5.453 5.788,6.904 3.225,3.677 3.931,7.07 2.184,10.49 -2.11,4.127 -7.381,4.594 -15.288,1.355 -0.993,-0.407 -1.627,-0.589 -1.629,-0.469 -0.001,0.109 -0.112,1.21 -0.246,2.447 -0.342,3.162 -0.381,2.93 0.541,3.236 13.033,4.326 23.757,-1.068 23.332,-11.736 -0.132,-3.321 -1.32,-5.747 -4.623,-9.442 -3.035,-3.394 -4.73,-5.458 -5.582,-6.799 -2.087,-3.283 -1.505,-6.982 1.494,-9.48 2.659,-2.215 5.625,-2.326 11.492,-0.43 0.819,0.265 1.502,0.463 1.518,0.441 0.017,-0.022 0.16,-1.09 0.318,-2.373 0.159,-1.283 0.322,-2.459 0.364,-2.612 0.237,-0.865 -9.124,-1.503 -12.104,-0.825 m -38.333,1.562 c -0.108,0.665 -0.681,3.458 -1.273,6.208 -0.592,2.75 -1.116,5.225 -1.165,5.5 -0.562,3.165 -6.342,27.309 -7.332,30.626 -0.083,0.278 0.556,0.291 12.377,0.25 l 12.465,-0.042 0.625,-2.084 c 0.345,-1.145 0.628,-2.177 0.631,-2.291 0.004,-0.165 -2.054,-0.209 -9.745,-0.209 -5.363,0 -9.75,-0.056 -9.75,-0.126 0,-0.069 0.075,-0.388 0.168,-0.708 0.093,-0.32 0.24,-0.995 0.327,-1.499 0.087,-0.504 0.677,-3.129 1.312,-5.833 0.635,-2.705 1.246,-5.423 1.359,-6.041 l 0.204,-1.123 8.679,-0.043 8.679,-0.043 0.548,-1.834 c 0.302,-1.008 0.593,-2.039 0.649,-2.29 l 0.101,-0.457 -8.729,-0.043 -8.729,-0.043 0.465,-2.167 c 0.255,-1.191 0.971,-4.472 1.59,-7.291 l 1.127,-5.124 9.535,-10e-4 h 9.536 l 0.673,-2.105 c 0.37,-1.157 0.672,-2.17 0.672,-2.25 0,-0.081 -5.452,-0.145 -12.401,-0.145 H 163.03 l -0.196,1.208 m 53.893,1.042 -0.684,2.25 h 6.395 c 4.422,0 6.395,0.055 6.395,0.178 0,1.169 -4.476,19.649 -7.445,30.738 -0.515,1.925 -1.19,4.475 -1.5,5.667 -0.309,1.192 -0.603,2.298 -0.653,2.458 -0.084,0.27 0.121,0.292 2.747,0.292 h 2.838 l 0.156,-0.625 c 0.085,-0.344 0.657,-2.95 1.271,-5.792 1.48,-6.859 3.155,-14.012 5.704,-24.372 l 2.101,-8.54 5.588,-0.044 5.587,-0.044 0.548,-1.75 c 0.301,-0.962 0.593,-1.956 0.649,-2.208 l 0.102,-0.458 h -14.557 -14.558 l -0.684,2.25 m 34.529,-2.042 c -0.095,0.298 -1.447,7.046 -1.611,8.042 -0.247,1.505 -2.472,11.56 -3.761,17 -1.473,6.213 -4.358,17.987 -4.495,18.345 -0.081,0.212 0.294,0.24 2.715,0.2 l 2.81,-0.045 0.299,-1.75 c 0.555,-3.256 2.948,-13.834 3.987,-17.625 L 251.349,52 h 8.118 8.117 l 0.568,-2.042 c 0.313,-1.123 0.602,-2.135 0.643,-2.25 0.059,-0.165 -1.655,-0.208 -8.215,-0.208 h -8.289 l 0.111,-0.708 c 0.061,-0.39 0.585,-2.771 1.164,-5.292 0.579,-2.521 1.267,-5.54 1.529,-6.708 l 0.476,-2.125 h 8.875 c 8.284,0 8.886,-0.02 9.028,-0.292 0.198,-0.381 1.359,-3.836 1.359,-4.046 0,-0.264 -23.492,-0.218 -23.577,0.046 m 76.593,5.333 c -2.348,10.626 -5.285,22.786 -7.456,30.875 -1.729,6.441 -1.893,7.07 -1.893,7.248 0,0.108 1.02,0.169 2.803,0.169 h 2.802 l 0.972,-4.542 c 0.535,-2.498 1.185,-5.554 1.445,-6.791 1.208,-5.743 5.87,-24.701 6.835,-27.792 l 0.169,-0.542 3.195,0.004 c 7.987,0.009 10.007,1.134 9.976,5.558 -0.046,6.559 -3.987,9.891 -11.905,10.063 -1.902,0.042 -3.459,0.093 -3.459,0.115 0,0.131 0.823,2.509 1.532,4.427 0.897,2.424 3.422,10.047 4.362,13.167 0.318,1.054 0.887,2.91 1.266,4.125 L 339.181,72 h 2.993 c 1.646,0 2.993,-0.052 2.993,-0.116 0,-0.158 -1.146,-3.128 -2.334,-6.051 -1.196,-2.94 -2.282,-5.887 -3.993,-10.839 l -1.298,-3.755 1.597,-0.294 c 7.806,-1.436 11.245,-4.909 13.058,-13.185 0.953,-4.355 -0.965,-8.251 -4.602,-9.346 -0.682,-0.205 -2.327,-0.247 -9.671,-0.247 h -8.85 l -1.225,5.541 m 33.741,-4.833 c -0.121,0.801 -2.211,9.504 -3.373,14.042 -0.423,1.65 -1.124,4.387 -1.557,6.083 -0.434,1.696 -1.211,4.621 -1.728,6.5 -2.103,7.657 -4.159,15.013 -4.531,16.208 -0.083,0.269 0.105,0.292 2.389,0.292 h 2.48 l 0.622,-2.792 c 2.03,-9.099 4.509,-19.24 6.856,-28.041 0.672,-2.521 1.316,-4.995 1.43,-5.498 0.163,-0.718 0.235,-0.843 0.337,-0.583 0.137,0.35 1.722,10.631 1.982,12.854 0.084,0.721 0.417,3.41 0.74,5.977 0.89,7.073 1.258,11.749 1.261,16.041 L 368.5,72 h 2.653 2.653 l 0.33,-0.542 c 0.181,-0.298 0.983,-1.816 1.783,-3.375 0.799,-1.558 1.774,-3.433 2.165,-4.166 2.429,-4.548 4.391,-8.168 5.022,-9.267 0.4,-0.696 0.727,-1.309 0.727,-1.361 0,-0.052 0.338,-0.666 0.75,-1.363 0.413,-0.698 1.152,-1.998 1.642,-2.889 0.873,-1.586 2.813,-4.961 5.339,-9.287 0.696,-1.192 1.658,-2.856 2.137,-3.699 0.48,-0.843 0.898,-1.508 0.928,-1.477 0.052,0.052 -0.348,2.152 -1.146,6.009 -0.815,3.941 -3.924,16.97 -5.828,24.417 -0.947,3.705 -1.655,6.683 -1.655,6.958 0,0.023 1.159,0.042 2.576,0.042 h 2.576 l 0.102,-0.625 c 0.241,-1.46 1.606,-8.283 2.826,-14.125 0.999,-4.781 3.779,-16.623 5.343,-22.762 0.503,-1.971 0.577,-2.524 0.577,-4.292 v -2.029 h -3.32 -3.32 l -1.888,3.53 c -1.039,1.942 -2.193,4.098 -2.564,4.792 -0.65,1.212 -2.278,4.166 -4.83,8.761 -1.546,2.784 -3.455,6.14 -5.405,9.5 -0.851,1.467 -1.824,3.154 -2.162,3.75 -0.338,0.596 -1.027,1.758 -1.53,2.583 -0.504,0.825 -1.056,1.775 -1.229,2.111 -0.988,1.929 -0.907,2.098 -1.642,-3.444 -2.119,-15.973 -2.777,-22.795 -2.777,-28.789 v -2.794 h -3.818 -3.819 l -0.106,0.708 m -58.247,3.479 c 8.499,2.138 11.005,12.858 5.669,24.245 -4.404,9.397 -14.782,13.916 -22.929,9.985 -12.028,-5.803 -4.558,-31.109 10.084,-34.16 0.779,-0.162 1.491,-0.318 1.583,-0.346 0.713,-0.22 4.333,-0.041 5.593,0.276"
       stroke="none"
       fill="#ffffff"
       fill-rule="evenodd"
       style="fill:#ffffff" />
  </g>
</svg>
