<svg xmlns="http://www.w3.org/2000/svg" width="1169" height="910" viewBox="0 0 1169 910" version="1.1"><path d="M 932.500 1.601 C 929.200 2.390, 922.450 4.351, 917.500 5.960 C 912.550 7.568, 899.725 11.424, 889 14.528 C 819.549 34.627, 745.715 59.743, 690.090 82.191 C 612.570 113.475, 560.128 143.792, 541.373 168.165 C 536.428 174.591, 526.506 194.619, 523.118 205.013 C 512.425 237.816, 518.733 260.241, 541.386 269.951 C 554.467 275.558, 578.015 276.732, 593.608 272.555 C 630.977 262.543, 720.556 222.961, 862.500 153.741 C 931.260 120.209, 963.023 104.109, 971.552 98.465 C 988.516 87.239, 1000.637 70.987, 1003.202 56.028 C 1007.147 33.020, 990.785 7.299, 968.540 1.542 C 960.981 -0.414, 940.790 -0.381, 932.500 1.601 M 362 105.144 C 279.775 149.684, 203.500 190.880, 192.500 196.692 C 152.711 217.712, 122.827 239.335, 94.440 267.648 C 49.668 312.301, 20.956 361.678, 6.685 418.565 C 0.133 444.684, -0.152 448.281, 0.239 500.064 C 0.634 552.500, 0.776 553.839, 9.677 589.500 C 24.393 648.453, 55.339 717.007, 88.180 763.408 C 107.652 790.919, 137.736 823.437, 160 841.039 C 206.987 878.187, 257.868 899.292, 320.619 907.665 C 339.147 910.137, 387.914 910.127, 408 907.647 C 449.411 902.534, 493.946 891.005, 518.500 879.041 C 550.562 863.419, 585.540 831.085, 605.917 798.230 C 617.143 780.130, 627.020 757.285, 630.227 742 C 633.821 724.874, 632.946 696.959, 627.907 668 C 609.281 560.956, 533.335 403.413, 479.654 360.463 C 460.790 345.370, 439.311 339.617, 402 339.664 C 365.022 339.710, 322.091 346.822, 270.706 361.414 C 251.987 366.729, 225.009 375.336, 222.282 376.862 C 221.230 377.451, 222.612 381.035, 228.404 392.740 C 252.482 441.399, 277.252 476.733, 295.582 488.566 C 304.072 494.047, 310.415 495.352, 325.465 494.717 C 350.027 493.681, 386.397 483.753, 427.796 466.784 C 439.641 461.929, 440.146 461.813, 441.562 463.622 C 442.371 464.655, 448.152 473.150, 454.409 482.500 C 506.120 559.776, 533.479 629.285, 530.668 676.248 C 529.997 687.442, 526.345 699.594, 518.090 718.092 C 510.121 735.953, 504.620 744.380, 494 755 C 480.515 768.485, 463.910 777.566, 439.491 784.810 C 416.220 791.714, 397.292 794.398, 372 794.379 C 351.403 794.365, 337.817 792.738, 318.864 788.017 C 251.909 771.338, 192.373 721.089, 147.517 643.398 C 144.392 637.984, 140.723 630.168, 139.365 626.028 C 119.867 566.603, 116.900 505.167, 130.933 451.445 C 145.396 396.080, 181.632 346.496, 232.424 312.569 C 244.311 304.630, 248.268 302.629, 375 240.467 C 429.725 213.624, 478.123 189.331, 482.550 186.483 C 505.693 171.597, 521.786 149.067, 528.609 122 C 531.245 111.543, 531.311 81.259, 528.724 69.273 C 524.689 50.576, 515.560 24.653, 512.899 24.331 C 512.129 24.238, 444.225 60.604, 362 105.144 M 1096.472 113.974 C 1084.995 115.604, 1077.310 118.252, 1035.500 134.981 C 823.266 219.901, 660.997 291.325, 614 320.507 C 596.883 331.136, 588.491 341.763, 584.393 358 C 581.907 367.851, 582.857 385.921, 586.418 396.500 C 590.568 408.827, 596.468 418.435, 605.500 427.571 C 622.992 445.264, 641.711 450.288, 665.384 443.640 C 698.907 434.226, 773.906 402.381, 883.049 351.217 C 978.668 306.394, 1121.070 236.689, 1133.247 228.748 C 1148.985 218.483, 1160.827 204.956, 1166.026 191.304 C 1169.065 183.325, 1169.742 169.806, 1167.570 160.500 C 1164.048 145.413, 1154.036 130.201, 1142.658 122.648 C 1131.280 115.096, 1112.888 111.642, 1096.472 113.974 M 1077 304.965 C 1065.791 307.371, 1059.691 309.657, 991.500 337.016 C 823.353 404.478, 709.656 454.827, 677.747 475.956 C 665.629 483.981, 663.849 486.436, 659.818 500.691 C 656.941 510.862, 656.708 530.888, 659.342 541.500 C 664.279 561.387, 677.296 577.731, 695.067 586.355 C 712.384 594.758, 722.049 595.593, 744 590.583 C 800.427 577.703, 918.427 522.003, 1080.500 431.742 C 1095.350 423.472, 1111.245 414.410, 1115.823 411.603 C 1132.054 401.651, 1146.374 385.797, 1151.143 372.500 C 1154.047 364.401, 1154.693 352.252, 1152.643 344.252 C 1147.449 323.977, 1133.454 309.387, 1114.540 304.530 C 1106.310 302.417, 1087.877 302.631, 1077 304.965 M 1070 506.135 C 1057.721 507.201, 1049.717 509.562, 1017.911 521.497 C 949.216 547.275, 871.760 578.459, 823.793 599.651 C 776.183 620.685, 738.693 641.005, 733.161 648.774 C 727.454 656.789, 724.408 676.360, 726.016 694.682 C 729.150 730.396, 744.747 756.309, 767.217 763.135 C 784.717 768.450, 809.057 762.431, 863 739.448 C 914.761 717.395, 992.092 679.800, 1067.500 640.029 C 1100.462 622.645, 1107.653 618.179, 1117.224 609.150 C 1132.518 594.722, 1138.964 581.393, 1138.988 564.144 C 1139.011 548.238, 1132.587 532.699, 1121.342 521.453 C 1108.914 509.025, 1092.640 504.170, 1070 506.135" stroke="none" fill="#ff8c04" fill-rule="evenodd"/><path d="" stroke="none" fill="#fc8c04" fill-rule="evenodd"/></svg>